# xmcd
#
# Track frame offsets: 
#        300
#        18812
#        33591
#        46535
#        57513
#        69050
#        82453
#        97920
#        112277
#        125501
#        141379
#        157339
#
# Disc length: 2285 seconds
#
# Revision: 0
# Processed by: cddbd v1.5.2PL0 Copyright (c) Steve Scherf et al.
# Submitted via: ExactAudioCopy v0.95a5
#
DISCID=aa08e90c
DTITLE=Elliott, Walter and Bennett - Elliott, Walter and Bennett
DYEAR=1979
DGENRE=
TTITLE0=Waiting There Today
TTITLE1=Don't My Eyes Say I Love You
TTITLE2=I See A Great Light Comin'
TTITLE3=Love Like A River
TTITLE4=It
TTITLE5=Old Rockers
TTITLE6=I'm Through Makin' Up While You're Out Makin' Out
TTITLE7=I Don't Want To Be A Hero
TTITLE8=I've Known Some Ladies
TTITLE9=For All The Right Reasons
TTITLE10=You're The One
TTITLE11=Vacant Lot Vendor
EXTD=
EXTT0=
EXTT1=
EXTT2=
EXTT3=
EXTT4=
EXTT5=
EXTT6=
EXTT7=
EXTT8=
EXTT9=
EXTT10=
EXTT11=
PLAYORDER=
